<svg width="48" height="44" viewBox="0 0 48 44" fill="none" xmlns="http://www.w3.org/2000/svg">
<g clip-path="url(#clip0_52_943)">
<path d="M42.3883 41.1937C40.3213 42.9323 37.5317 43.9995 34.4625 43.9995H11.5375C5.16636 43.9995 0 39.4036 0 33.7334V13.3354C0 9.96529 1.8251 6.97468 4.64311 5.10352V32.0704C4.64311 37.1097 9.23432 41.1937 14.8963 41.1937H42.3883Z" fill="#26874E"/>
</g>
<rect width="44.7117" height="42.3867" rx="10" transform="matrix(-0.999996 -0.00265187 0.00202247 -0.999998 47.9141 42.5059)" fill="#4DA768"/>
<path d="M35.081 9.54208C32.5968 9.91898 32.628 10.8858 30.9328 10.8039C29.4173 10.7301 29.4798 10.0009 27.5737 9.6404C27.23 9.57486 24.7692 9.10783 22.6443 10.1238C21.9803 10.4434 21.4647 10.853 20.6289 10.8039C20.0195 10.7711 19.6914 10.5171 19.0586 10.2221C19.0586 10.2221 17.715 9.59944 16.0354 9.44376C13.8637 9.24712 12.1372 10.0828 11.6685 10.3123C10.8248 10.7301 10.2389 11.2135 9.65303 11.7625C8.38749 12.9506 7.76253 13.5323 7.40318 14.3844C7.27038 14.7121 7.16101 15.2201 6.9579 16.2279C6.8954 16.5229 6.73135 17.3177 6.62198 18.1616C6.41887 19.702 6.51262 20.128 6.39544 22.3239C6.25482 25.1342 6.07514 24.9621 6.16889 26.101C6.22357 26.7319 6.33294 27.5185 6.27826 28.7147C6.26263 29.0179 6.23138 29.3702 6.16889 30.0667C5.95797 32.3199 5.88766 32.6148 6.16889 32.877C6.4345 33.1228 6.67667 33.0163 8.52029 33.0737C9.8327 33.1146 10.2233 33.1802 11.5435 33.172C13.0825 33.1638 13.3637 33.0655 13.559 32.8852C13.9887 32.4837 13.7934 31.8364 13.6684 31.14C13.4965 30.124 13.6449 28.8131 13.8949 26.1994C14.059 24.5197 14.223 24.151 14.2308 22.9056C14.2387 21.8241 14.2308 20.9719 14.2308 20.9719C14.223 20.2427 14.2152 20.1198 14.2308 19.8085C14.2777 18.6204 14.309 18.0141 14.6761 17.6782C15.2542 17.1538 16.2854 17.0555 16.4729 17.3914C16.5822 17.588 16.2776 17.7601 16.137 18.432C16.051 18.8253 16.1213 18.9564 16.137 20.0707C16.1448 20.4721 16.137 20.6442 16.137 20.89C16.137 25.8634 16.4729 28.2395 16.4729 28.2395C16.4729 28.2395 16.6135 29.9847 16.4651 31.1236C16.4416 31.2793 16.4104 31.435 16.3635 31.6316C16.1995 32.2625 16.0198 32.6066 16.2541 32.8934C16.6916 33.4342 17.8947 32.918 20.1758 32.8934C22.4412 32.8688 23.5349 33.4669 24.0974 32.8934C24.2536 32.7377 24.2927 32.5657 24.3239 31.5333C24.3552 30.4108 24.3708 29.8536 24.3239 29.108C24.2536 27.9528 24.3786 27.9937 24.4333 25.7159C24.4723 24.192 24.4567 22.8237 24.4333 21.2587C24.3942 18.5876 24.3239 17.7765 24.9957 17.3832C25.5504 17.0555 27.1753 18.7515 27.0112 19.8986C26.9019 20.6524 27.0894 19.7921 27.0112 23.7741C26.9644 25.9372 27.1362 28.1084 26.9019 30.2633C26.7691 31.5005 26.6206 32.1396 27.1284 32.5902C27.6909 33.09 28.3861 32.7459 31.1594 32.7869C33.1358 32.8115 34.3232 33.0081 34.6357 32.5001C34.7529 32.2953 34.6826 32.0823 34.6357 31.9184C34.3701 30.9925 34.6279 30.632 34.7451 28.8213C34.7841 28.2231 34.7685 26.4861 34.7451 23.0121C34.7373 21.7175 34.9482 20.4312 34.8545 19.1366C34.7841 18.0878 34.6357 17.2685 35.1904 16.908C35.62 16.6294 36.3856 16.695 36.8699 17.0063C37.2762 17.2685 37.5886 17.7765 37.4324 20.7835C37.409 21.2423 37.4168 22.5123 37.4324 25.0441C37.4324 25.5685 37.448 26.1584 37.8777 26.396C38.362 26.6664 39.1276 26.3468 39.8932 26.0109C40.565 25.7159 41.3462 25.3718 42.2446 24.5607C44.0101 22.9629 44.5726 21.0785 44.7132 20.5868C45.6194 17.3832 44.76 12.2295 40.4556 10.2221C40.4322 10.2139 40.3853 10.1894 40.3306 10.1648C38.0886 9.15699 35.745 9.44376 35.081 9.54208Z" fill="#257236"/>
<path d="M37.0655 26.6259C37.7374 26.6013 38.2764 26.5112 38.6201 26.4374C39.6591 26.2244 42.2136 25.528 44.0573 23.1682C44.1588 23.0371 44.2291 22.9388 44.276 22.8733C46.6977 19.5631 46.3384 14.3603 42.8933 11.3779C42.6667 11.1812 39.9247 8.92803 36.5421 9.00177C35.2454 9.02635 34.2298 9.05093 33.1908 9.59989C32.4643 9.98498 31.9878 10.4848 31.1128 10.493C30.6129 10.5012 30.3394 10.3373 29.7301 10.0997C29.1208 9.86208 27.6912 9.28035 26.3788 9.20661C25.1367 9.14106 24.082 9.48518 23.1446 9.80473C21.8322 10.239 21.5666 10.5831 20.7229 10.5995C19.7933 10.6077 19.4417 10.2062 18.4105 9.80473C15.4264 8.64945 12.3485 9.73918 12.1766 9.80473C11.411 10.0751 10.9579 10.3783 10.0908 10.9764C8.30967 12.2054 6.41917 13.8605 6.27855 16.0317C6.26293 16.253 6.27074 16.4332 6.27855 16.5234" stroke="#257236" stroke-width="2" stroke-miterlimit="10"/>
<path d="M5.20801 34C5.56736 28.1089 5.92671 22.2179 6.28606 16.335" stroke="#257236" stroke-width="2" stroke-miterlimit="10"/>
<path d="M5.20801 33.1807C8.075 33.1807 10.9342 33.1807 13.8012 33.1807" stroke="#257236" stroke-width="2" stroke-miterlimit="10"/>
<path d="M13.9804 17.7197C13.6601 23.1438 13.3398 28.576 13.0195 34.0001" stroke="#257236" stroke-width="2" stroke-miterlimit="10"/>
<path d="M16.4648 17.8184C16.3555 23.2096 16.2461 28.6091 16.1367 34.0004" stroke="#257236" stroke-width="2" stroke-miterlimit="10"/>
<path d="M24.2221 33.1807C21.3941 33.1807 18.5662 33.1807 15.7305 33.1807" stroke="#257236" stroke-width="2" stroke-miterlimit="10"/>
<path d="M24.2773 17.5234C24.168 23.013 24.0586 28.5108 23.957 34.0005" stroke="#257236" stroke-width="2" stroke-miterlimit="10"/>
<path d="M26.8789 17.8184C26.9414 22.9393 27.0117 28.0602 27.0742 33.1811" stroke="#257236" stroke-width="2" stroke-miterlimit="10"/>
<path d="M34.5811 17.0977C34.6826 22.7347 34.792 28.3636 34.8935 34.0007" stroke="#257236" stroke-width="2" stroke-miterlimit="10"/>
<path d="M37.2998 17.916C37.3389 20.8411 37.3779 23.7661 37.4092 26.6912" stroke="#257236" stroke-width="2" stroke-miterlimit="10"/>
<path d="M34.5811 17.9163C34.5733 17.2526 35.0967 16.7119 35.7139 16.6299C36.4638 16.5234 37.2841 17.0969 37.2997 17.9163" stroke="#257236" stroke-width="2" stroke-miterlimit="10"/>
<path d="M23.957 18.4318C24.1836 17.3175 25.1835 16.6948 25.9803 16.9242C26.5506 17.0881 26.9959 17.6944 27.0818 18.4318" stroke="#257236" stroke-width="2" stroke-miterlimit="10"/>
<path d="M26.3711 33.082C29.16 33.082 31.9567 33.082 34.7455 33.082" stroke="#257236" stroke-width="2" stroke-miterlimit="10"/>
<path d="M13.8008 18.4331C13.9336 17.6957 14.4726 17.1303 15.1132 17.0238C15.9022 16.8927 16.7381 17.4909 16.9256 18.4331" stroke="#257236" stroke-width="2" stroke-miterlimit="10"/>
<defs>
<clipPath id="clip0_52_943">
<rect width="46" height="40.9303" fill="white" transform="translate(0 3.06934)"/>
</clipPath>
</defs>
</svg>
